<?xml version="1.0" encoding="UTF-8" standalone="no"?>
<svg width="1275px" height="1363px" viewBox="0 0 1275 1363" version="1.1" xmlns="http://www.w3.org/2000/svg" xmlns:xlink="http://www.w3.org/1999/xlink" xmlns:sketch="http://www.bohemiancoding.com/sketch/ns">
    <!-- Generator: Sketch 3.3.2 (12043) - http://www.bohemiancoding.com/sketch -->
    <title>Artboard 1</title>
    <desc>Created with Sketch.</desc>
    <defs></defs>
    <g id="Page-1" stroke="none" stroke-width="1" fill="none" fill-rule="evenodd" sketch:type="MSPage">
        <g id="Artboard-1" sketch:type="MSArtboardGroup" transform="translate(-117.000000, -38.000000)" fill="#FFFFFF">
            <g id="Rectangle-2-+-Oval-1-+-Oval-1-Copy" sketch:type="MSLayerGroup" transform="translate(117.000000, 37.500000)">
                <path d="M682.301895,695.887122 C488.593382,807.724784 360.567059,948.62604 396.347099,1010.59889 C397.844162,1013.18122 399.264465,1015.48675 400.744498,1017.7658 C474.514055,1131.36096 668.739944,1136.15216 834.560161,1028.46726 C856.468832,1014.2396 876.785498,998.760345 895.378249,982.346593 C1008.47982,879.403978 1147.56017,844.950979 1230.99451,901.283288 C1152.81019,904.826887 1080.97166,955.448015 1046.9494,1031.96539 C969.395619,1206.55448 822.505333,1332.46236 640.18404,1358.08595 C339.383567,1400.3607 56.0482169,1153.65669 7.33682442,807.057122 C-14.6754024,650.43199 14.9905833,500.209641 81.8813851,378.685981 C147.667037,249.004786 277.401654,142.471331 443.601676,94.814242 C634.364145,40.1139842 825.489305,76.6498363 953.104331,176.532261 C993.764371,205.9059 1048.68567,216.76741 1102.66357,201.289495 C1170.66931,181.789162 1217.78979,126.039615 1226.53379,63.4283779 C1241.95168,189.565949 1164.93829,311.381606 1040.21116,347.146533 C974.515507,365.984459 907.394868,357.562351 850.71939,328.545491 C760.387533,285.353843 653.846421,273.841112 549.212846,303.844307 C479.932358,323.710167 419.587706,359.454485 371.125566,405.868826 C315.710154,456.03778 278.831606,517.830197 262.055833,580.69314 C260.855179,585.422912 260.709561,589.045275 261.391586,592.55399 C271.347519,643.772824 453.895713,651.378938 669.124389,609.542721 C766.097969,590.692967 853.160393,565.022286 918.646071,537.818971 C894.538546,552.361077 867.496657,567.483342 844.091187,577.656725 C785.104025,603.295987 649.64402,650.956738 649.64402,650.956738 C649.64402,650.956738 755.754336,643.498871 829.058999,622.715554 C832.636407,621.701289 836.153755,620.662885 839.608384,619.605115 C789.837444,639.019869 736.368482,664.671763 682.301895,695.887122 Z M990.367631,544.920095 C987.165494,547.607008 983.974834,550.078717 980.878823,552.294723 C959.075779,568.797735 902.093851,590.040807 833.475458,605.882612 C824.114489,608.043762 814.904099,610.01963 805.909296,611.807156 C805.909296,611.807156 865.706258,582.8657 894.992939,572.378802 C924.279619,561.891904 952.787647,556.331401 974.17833,546.795598 C995.569013,537.259795 1011.24207,525.501957 1019.37658,516.894265 C1019.37658,516.894265 1001.43956,535.62964 990.367631,544.920095 Z" id="Rectangle-2" sketch:type="MSShapeGroup"></path>
                <path d="M1161.53092,106.970033 C1181.72119,101.819331 1202.37334,81.0331849 1213.53147,51.9652685 C1219.3984,36.6813913 1221.7827,21.3427232 1221.04461,7.71204932 C1216.66731,21.1547019 1210.65472,35.3501605 1203.07923,49.5975725 C1190.66771,72.9402493 1176.02585,92.7269126 1161.53092,106.970036 L1161.53092,106.970033 Z" id="Oval-1" sketch:type="MSShapeGroup" transform="translate(1191.352899, 57.341042) rotate(-21.000000) translate(-1191.352899, -57.341042) "></path>
                <path d="M1186.82241,984.967708 C1207.01268,979.817006 1227.66483,959.03086 1238.82295,929.962944 C1244.68989,914.679067 1247.07419,899.340399 1246.33609,885.709725 C1241.95879,899.152377 1235.9462,913.347836 1228.37072,927.595248 C1215.9592,950.937925 1201.31733,970.724588 1186.82241,984.967711 L1186.82241,984.967708 Z" id="Oval-1-Copy" sketch:type="MSShapeGroup" transform="translate(1216.644384, 935.338718) rotate(-116.000000) translate(-1216.644384, -935.338718) "></path>
            </g>
        </g>
    </g>
</svg>